<svg xmlns="http://www.w3.org/2000/svg" width="73.202" height="87.379" viewBox="0 0 73.202 87.379"><g transform="translate(-82.471 -94.41)"><text transform="translate(93.602 147.41)" fill="#fff" font-size="47" font-family="TitilliumWeb-Bold, Titillium Web" font-weight="700"><tspan x="0" y="0">pa</tspan></text><g transform="translate(79.089 112.53)"><g transform="translate(0)"><path d="M16.527,243.892a2.144,2.144,0,0,0,.869.169,2.24,2.24,0,0,0,1.52-.6l15.128-14.476H62.489A10.719,10.719,0,0,0,73.2,218.269v0a2.2,2.2,0,1,0-4.391,0v0a6.327,6.327,0,0,1-6.321,6.321H33.151a2.24,2.24,0,0,0-1.52.6L19.567,236.726V226.81a2.2,2.2,0,0,0-2.2-2.2H10.712a6.327,6.327,0,0,1-6.321-6.321V186.687a6.348,6.348,0,0,1,6.321-6.345H53.529a2.2,2.2,0,1,0,0-4.391H10.712A10.719,10.719,0,0,0,0,186.662v31.607a10.719,10.719,0,0,0,10.712,10.712H15.2V241.89A2.19,2.19,0,0,0,16.527,243.892Z" transform="translate(3.382 -174.803)" fill="#fff"/></g></g></g></svg>